<svg width="500" height="500" viewBox="0 0 500 500" fill="none" xmlns="http://www.w3.org/2000/svg">
<path d="M275.834 279.999C278.344 286.642 280.854 293.285 283.569 300.472C290.68 292.385 297.464 284.67 304.789 276.341C311.601 282.409 318.161 288.253 324.909 294.264C335.103 288.034 345.15 281.894 355.988 275.27C355.988 284.907 356.056 293.493 355.893 302.074C355.875 303.03 354.546 303.961 353.074 304.753C350.853 304.402 349.384 304.026 347.914 304.025C328.277 304.01 308.64 304.046 288.566 304.055C283.672 303.541 280.135 304.152 280.466 309.998C258.694 309.999 237.383 309.998 216.055 309.578C216.532 302.452 211.648 304.239 207.534 304.05C185.337 304.042 163.609 304.055 141.881 304.067C141.596 297.021 141.311 289.975 141.552 282.464C147.425 281.986 152.77 281.971 158.116 281.957C161.484 286.314 164.852 290.672 168.159 294.95C171.726 291.169 175.002 287.696 179.058 284.099C189.93 283.969 200.022 283.964 210.115 283.958C213.621 288.342 217.128 292.726 221.058 297.641C223.727 291.37 226.149 285.681 229.371 279.869C245.393 279.83 260.613 279.915 275.834 279.999Z" fill="white"/>
<path d="M83.6877 154.191C88.9044 160.403 93.849 166.357 98.7962 172.309C99.0089 172.565 99.4873 172.895 99.434 173.033C98.5596 175.304 98.2 178.212 96.5606 179.647C93.9917 181.895 94.6783 188.323 88.5777 186.222C78.5946 182.783 68.5958 179.389 58.2783 176.659C67.2446 182.838 76.2109 189.016 85.6083 195.492C83.0159 199.29 80.8701 202.743 78.3401 205.887C77.8199 206.534 75.4996 206.562 74.6245 205.968C60.5452 196.414 46.5664 186.712 32.563 177.045C30.0784 175.33 29.7682 173.386 31.5933 170.893C34.4941 166.933 37.0782 162.728 40.1529 158.914C40.9148 157.969 43.2493 157.483 44.517 157.881C55.4143 161.303 66.2304 164.984 77.0797 168.56C77.8196 168.804 78.6314 168.831 80.0597 169.065C71.4747 158.53 63.3008 148.499 54.7352 137.988C58.3198 132.702 61.8671 127.256 65.7405 122.054C66.1854 121.456 68.7863 121.717 69.8207 122.417C83.789 131.875 97.6553 141.484 111.553 151.046C112.491 151.692 113.475 152.272 114.984 153.228C112.078 157.501 109.219 161.702 106.215 166.119C98.0016 160.412 89.8427 154.743 81.6838 149.074C81.3661 149.35 81.0484 149.626 80.7306 149.901C81.6258 151.245 82.521 152.589 83.6877 154.191ZM79.5934 147.283C79.3075 147.333 79.0216 147.384 78.7357 147.434C78.7903 147.677 78.8449 147.92 78.8995 148.162C79.2385 148.07 79.5775 147.977 79.5934 147.283Z" fill="white"/>
<path d="M266.161 214.987C262.566 205.092 258.971 195.197 255.375 185.302C254.956 185.267 254.537 185.232 254.117 185.197C250.329 194.688 246.541 204.18 241.959 213.848C232.805 214.021 224.446 214.016 216.067 213.543C216.033 198.599 216.104 184.124 215.95 169.652C215.908 165.746 216.957 163.901 221.271 163.94C239.404 164.103 257.54 164.1 275.673 163.941C279.926 163.903 281.096 165.629 281.052 169.595C280.881 184.733 280.941 199.873 280.454 215.01C275.383 215 270.772 214.994 266.161 214.987Z" fill="white"/>
<path d="M266.212 215.356C270.772 214.994 275.383 215 280.476 215.477C280.971 221.051 280.978 226.156 281.001 231.261C281.031 238.003 281.037 238.003 288.471 237.939C308.537 237.975 328.135 238.013 347.733 237.954C349.492 237.948 351.249 237.319 353.006 236.979C354.004 238.359 355.723 239.67 355.862 241.131C356.255 245.26 355.522 249.521 356.122 253.6C356.887 258.804 354.33 261.523 350.415 263.923C343.341 268.261 336.32 272.688 329.358 277.203C327.541 278.381 326.372 278.883 324.442 277.084C317.829 270.917 310.967 265.015 304.036 258.866C299.043 264.63 294.131 270.301 288.608 276.677C281.035 256.019 273.649 235.872 266.212 215.356Z" fill="white"/>
<path d="M288.003 237.914C281.037 238.003 281.031 238.003 281.001 231.261C280.978 226.156 280.971 221.051 280.936 215.479C280.941 199.873 280.881 184.733 281.052 169.595C281.096 165.629 279.926 163.903 275.673 163.941C257.54 164.1 239.404 164.103 221.271 163.94C216.957 163.901 215.908 165.746 215.95 169.652C216.104 184.124 216.033 198.599 216.045 214.01C216.028 220.382 216.022 225.818 215.998 231.254C215.969 238.001 215.963 238.001 208.905 237.591C207.208 234.569 205.603 231.867 203.999 229.166C207.853 229.366 206.982 226.54 206.984 224.389C207.007 201.896 206.998 179.403 206.997 156.91C206.997 155.121 206.997 153.332 206.997 151.273C234.741 151.273 261.994 151.273 290.003 151.273C290.003 153.03 290.003 154.784 290.003 156.538C290.003 179.197 289.962 201.857 290.094 224.516C290.103 226.021 291.428 227.518 292.487 229.423C291.223 232.523 289.613 235.218 288.003 237.914Z" fill="white"/>
<path d="M211.182 278.991C206.522 272.712 201.863 266.432 196.818 259.633C187.519 269.723 178.266 279.763 168.452 290.412C159.195 278.021 150.21 265.995 140.83 253.44C134.179 259.484 127.779 265.368 121.284 271.147C119.988 272.301 118.308 273.875 116.848 273.831C112.814 273.708 109.437 274.332 107.352 278.134C106.503 279.682 105.133 281.292 105.108 282.891C104.814 301.55 109.622 319.116 117.026 336.063C123.989 352.003 133.822 366.149 146.075 378.304C159.139 391.264 174.058 401.918 191.661 409.38C191.638 411.656 191.3 413.389 190.962 415.122C182.686 410.948 174.07 407.327 166.199 402.492C146.703 390.518 131.164 374.239 119.544 354.706C109.501 337.823 102.231 319.612 99.9853 299.784C99.3405 294.091 98.7844 288.383 97.925 282.721C97.7189 281.364 96.6972 279.913 95.6476 278.94C92.1337 275.681 91.0163 271.662 92.3512 267.31C93.5607 263.367 96.9799 260.875 100.936 261.201C105 261.536 109.623 262.373 110.597 269.34C113.68 267.648 116.391 266.71 118.394 264.962C126.106 258.233 133.59 251.244 141.649 243.907C150.753 256.011 159.765 267.992 168.99 280.257C178.343 270.076 187.547 260.057 197.392 249.34C203.713 258.135 209.862 266.688 215.783 275.77C214.098 277.195 212.64 278.093 211.182 278.991Z" fill="white"/>
<path d="M208.002 304.07C211.648 304.239 216.532 302.452 216.034 310.047C216.021 331.237 216.135 351.541 215.912 371.84C215.859 376.692 217.533 378.141 222.261 378.083C239.898 377.867 257.54 377.902 275.178 378.065C279.4 378.104 281.114 376.875 281.072 372.4C280.877 351.601 280.951 330.799 280.928 309.998C280.135 304.152 283.672 303.541 288.646 304.391C290.443 307.439 291.722 310.137 293.001 312.834C289.145 312.634 290.019 315.462 290.016 317.613C289.983 341.443 289.982 365.274 289.452 389.559C261.672 390.021 234.412 390.03 207.153 390.038C207.101 366.165 207.075 342.292 206.949 318.419C206.94 316.625 206.226 314.834 205.432 312.569C206.017 309.421 207.01 306.746 208.002 304.07Z" fill="white"/>
<path d="M208.997 237.913C215.963 238.001 215.969 238.001 215.998 231.254C216.022 225.818 216.028 220.382 216.065 214.479C224.446 214.016 232.805 214.021 241.64 214.033C234.227 233.354 226.337 252.667 218.144 272.726C211.175 263.107 204.605 254.039 197.752 244.58C188.107 255.065 178.855 265.121 169.227 275.587C159.705 262.924 150.477 250.651 141.098 238.176C141.89 237.791 142.603 237.443 144.004 237.26C145.996 237.614 147.301 237.968 148.607 237.969C168.737 237.977 188.867 237.94 208.997 237.913Z" fill="white"/>
<path d="M149.954 83.1537C147.838 77.2722 145.771 71.7855 143.326 65.2956C151.677 62.4459 159.489 59.2507 167.583 57.1261C185.336 52.466 197.237 62.9998 201.046 80.0333C202.906 88.3531 202.359 96.3841 196.829 102.804C193.227 106.986 188.155 110.287 183.142 112.772C176.936 115.848 170.11 117.672 162.995 120.238C158.586 107.788 154.295 95.6681 149.954 83.1537ZM184.986 85.9309C184.317 83.928 183.824 81.8443 182.949 79.9358C178.288 69.7702 174.471 68.3521 163.817 72.9459C166.769 81.3649 169.707 89.8231 172.71 98.2584C173.563 100.653 174.727 101.382 177.595 100.23C183.977 97.6664 185.678 93.0078 184.986 85.9309Z" fill="white"/>
<path d="M288.952 281.886C293.572 276.163 298.102 270.362 302.951 264.84C303.419 264.306 306.232 265.058 307.32 265.972C312.877 270.639 318.241 275.538 323.638 280.395C325.477 282.05 326.796 282.17 329.157 280.588C336.725 275.519 344.591 270.886 352.47 266.303C354.062 265.377 356.206 265.089 358.106 265.054C365.591 264.917 373.082 265.028 380.57 264.983C383.968 264.963 388.437 260.007 387.931 256.929C385.17 240.12 379.885 224.193 371.673 209.219C360.816 189.419 346.11 173.173 327.636 160.209C314.752 151.168 300.569 144.975 285.381 139.645C285.38 137.467 285.691 135.816 286.002 134.165C306.399 138.98 324.259 148.742 340.425 161.893C357.422 175.719 370.924 192.356 380.478 212.05C387.553 226.632 392.438 241.955 395.238 257.406C397.487 260.471 400.562 263.242 401.778 266.673C403.36 271.137 400.507 275.52 396.444 276.988C390.592 279.101 387.054 277.814 383.954 272.719C383.447 271.885 382.107 271.095 381.138 271.078C373.642 270.943 366.091 270.492 358.667 271.233C355.249 271.573 351.96 274.174 348.816 276.085C341.007 280.832 333.315 285.773 325.401 290.746C318.535 284.57 311.675 278.399 304.465 271.913C300.235 276.85 296.107 281.667 291.516 286.319C290.352 284.731 289.652 283.309 288.952 281.886Z" fill="white"/>
<path d="M377.75 117.75C384.846 110.308 391.692 103.116 399.053 95.3836C406.358 104.251 416.541 110.026 421.278 120.743C425.932 131.271 418.518 142.829 407.064 142.995C404.925 143.026 402.784 142.999 400.416 142.999C398.69 152.706 397.019 162.103 395.212 172.264C390.857 168.443 386.871 165.305 383.395 161.68C382.329 160.568 382.104 158.008 382.447 156.302C383.635 150.394 385.328 144.589 386.616 138.698C386.863 137.571 386.147 136.233 385.644 133.936C380.414 139.724 375.983 144.628 371.506 149.582C366.642 145.299 362.737 141.86 358.494 138.125C365.04 131.194 371.27 124.597 377.75 117.75ZM404.574 119.062C403.159 117.419 401.918 116.303 399.834 118.55C397.856 120.684 395.384 122.36 392.904 124.425C397.02 128.046 400.156 130.852 404.271 128.024C407.422 125.859 407.778 122.696 404.574 119.062Z" fill="white"/>
<path d="M328.251 78.2506C333.491 73.3943 338.482 68.788 344.374 63.3496C348.573 65.411 354.357 68.0139 359.851 71.1301C361.087 71.8317 362.03 74.3955 361.875 75.981C361.076 84.1284 359.899 92.2396 358.807 100.357C357.564 109.601 356.29 118.841 354.979 128.076C354.762 129.607 354.288 131.102 353.857 132.935C349.223 130.808 345.083 128.837 340.882 127.006C338.394 125.922 337.629 124.699 338.514 121.738C340.612 114.717 340.37 114.636 333.709 111.315C330.785 109.857 327.84 108.44 325.035 107.068C322.16 109.535 319.42 111.886 316.072 114.758C311.773 112.724 306.473 110.217 300.44 107.363C309.836 97.5236 318.918 88.0121 328.251 78.2506ZM344.81 82.7555C341.167 86.9764 337.523 91.1973 333.582 95.764C337.165 97.534 339.758 98.8149 343.111 100.471C344.17 94.2738 345.128 88.6719 346.635 82.7747C346.737 82.0203 346.84 81.2658 347.093 79.4101C346.1 81.0088 345.699 81.6556 344.81 82.7555Z" fill="white"/>
<path d="M131.365 113.277C129.161 115.032 127.261 116.589 125.259 118.23C127.007 120.658 128.692 122.999 130.58 125.623C135.462 122.167 140.443 118.642 145.429 115.114C146.947 116.961 148.37 118.545 149.627 120.251C153.84 125.971 153.89 126.087 148.188 130.255C140.925 135.566 133.532 140.701 126.176 145.885C125.955 146.042 125.527 145.905 124.75 145.905C113.604 130.65 102.288 115.161 90.9478 99.6399C100.503 92.6362 109.609 85.9617 119.173 78.9516C121.802 82.5037 124.526 86.1858 127.262 89.882C122.302 93.5681 117.846 96.88 112.767 100.655C114.122 102.701 115.486 104.76 116.965 106.991C121.715 103.579 126.062 100.457 130.732 97.1022C131.656 98.3855 132.565 99.6794 133.505 100.95C138.787 108.089 138.789 108.087 131.365 113.277Z" fill="white"/>
<path d="M425.011 199.061C424.839 200.72 425.026 202.608 424.241 203.195C421.5 205.242 418.423 206.839 415.05 208.861C409.534 199.548 403.981 190.328 398.688 180.962C398.225 180.143 399.056 177.679 399.975 177.128C414.885 168.187 429.874 159.375 444.977 150.765C445.941 150.216 448.784 151.07 449.396 152.088C454.78 161.047 459.857 170.191 465.228 179.637C461.292 181.896 457.528 184.056 453.569 186.328C450.413 181.001 447.509 176.099 444.322 170.719C442.111 171.946 440.039 173.095 437.679 174.404C440.61 179.545 443.341 184.334 446.138 189.238C442.223 191.453 438.541 193.536 434.478 195.833C431.592 190.992 428.779 186.273 425.748 181.189C423.069 182.913 420.445 184.602 417.741 186.343C420.33 190.794 422.627 194.743 425.011 199.061Z" fill="white"/>
<path d="M294.497 90.8017C295.558 90.7795 296.217 90.8878 296.876 90.9961C296.177 95.1698 295.541 99.3565 294.705 103.503C294.587 104.084 293.489 104.873 292.837 104.88C281.507 104.996 269.506 106.753 261.223 96.4509C258.395 92.9339 256.242 88.2067 255.566 83.761C253.967 73.2414 255.809 63.203 262.866 54.6127C271.462 44.1496 282.524 44.5761 294.027 47.6079C297.871 48.6209 301.451 50.6318 305.615 52.381C303.087 57.0256 300.927 60.9955 298.78 64.9416C295.222 63.293 292.105 61.4574 288.745 60.3728C281.614 58.0706 278.091 60.376 275.035 65.9022C271.951 71.4781 270.999 77.5824 272.379 83.604C273.949 90.4588 282.348 93.7913 290.764 91.6626C291.865 91.3841 292.984 91.174 294.497 90.8017Z" fill="white"/>
<path d="M275.777 279.631C260.613 279.915 245.393 279.83 229.65 279.675C235.245 264.412 241.348 249.213 247.49 234.031C249.371 229.382 251.358 224.777 253.784 218.987C261.347 239.768 268.533 259.515 275.777 279.631Z" fill="white"/>
<path d="M288.642 282.017C289.652 283.309 290.352 284.731 291.216 286.517C289.363 289.235 287.345 291.589 284.677 294.704C274.492 266.829 264.501 239.487 253.936 210.572C242.518 238.155 231.585 264.565 220.364 291.672C217.067 287.325 214.163 283.497 211.221 279.33C212.64 278.093 214.098 277.195 215.832 276.124C216.894 276.521 217.677 277.091 219.048 278.087C230.765 249.768 242.387 221.676 254.546 192.287C256.995 198.928 259.043 204.398 261.032 209.889C269.708 233.845 278.366 257.807 287.039 281.763C287.134 282.026 287.305 282.403 287.504 282.449C287.744 282.505 288.052 282.262 288.642 282.017Z" fill="white"/>
<path d="M288.004 414.164C295.647 410.956 303.477 408.128 310.895 404.463C328.471 395.78 343.314 383.691 356.02 368.628C370.306 351.692 380.089 332.634 385.206 311.251C387.514 301.605 388.452 291.631 390.086 281.339C391.305 281.339 393.363 281.339 396.308 281.339C395.082 290.158 394.176 299.019 392.574 307.752C388.436 330.315 378.553 350.452 364.686 368.455C352.657 384.072 338.063 397.258 320.582 406.583C310.734 411.836 300.07 415.559 289.377 419.54C288.656 417.461 288.33 415.813 288.004 414.164Z" fill="white"/>
<path d="M236 72.9628C236.845 82.5646 237.69 91.7004 238.594 101.482C233.133 102.003 227.881 102.504 222.197 103.046C220.442 83.6848 218.726 64.7403 216.964 45.2952C221.509 44.8536 225.876 44.1952 230.248 44.1542C231.484 44.1426 233.705 45.8284 233.827 46.9199C234.778 55.4201 235.327 63.9654 236 72.9628Z" fill="white"/>
<path d="M184.043 149.117C171.799 156.039 160.136 163.686 149.828 173.428C131.745 190.516 118.575 210.638 111.094 234.347C108.608 242.227 106.985 250.378 104.905 258.651C103.796 258.412 102.123 258.052 100.433 257.688C100.832 222.663 130.771 165.823 185.566 142.317C185.284 144.799 184.663 146.958 184.043 149.117Z" fill="white"/>
<path d="M184.422 149.067C184.663 146.958 185.284 144.799 185.932 142.262C197.147 138.257 208.107 133.231 219.582 131.364C233.166 129.153 247.208 128.98 261.024 129.261C269.143 129.427 277.21 132.193 285.651 133.977C285.691 135.816 285.38 137.467 285.036 139.477C279.446 138.789 273.918 137.523 268.324 136.738C254.453 134.792 240.663 134.388 226.626 136.46C211.96 138.626 198.291 143.335 184.422 149.067Z" fill="white"/>
<path d="M287.609 414.105C288.33 415.813 288.656 417.461 288.992 419.472C281.925 421.556 274.925 423.815 267.748 424.844C260.588 425.871 253.252 425.689 245.992 425.997C226.981 426.805 208.937 422.425 191.144 415.437C191.3 413.389 191.638 411.656 191.989 409.544C211.451 417.154 231.735 421.221 252.682 419.785C264.27 418.99 275.709 416.03 287.609 414.105Z" fill="white"/>
<path d="M225.746 444.253C227.165 446.041 228.331 447.572 229.603 449.243C234.445 445.123 238.973 441.27 243.5 437.417C244.091 437.708 244.682 437.998 245.273 438.288C244.217 448.713 243.161 459.139 242.12 469.426C235.174 470.407 234.101 469.162 235.406 463.055C235.973 460.398 235.918 457.606 236.214 454.062C233.14 456.337 230.822 458.052 228.318 459.905C226.447 457.565 224.619 455.281 222.311 452.396C221.492 457.914 220.756 462.869 219.974 468.135C217.327 467.522 215.324 467.058 213.139 466.552C214.238 456.019 215.32 445.654 216.432 434.995C221.95 435.689 222.441 441.163 225.746 444.253Z" fill="white"/>
<path d="M177.955 428.845C178.776 424.241 180.679 422.885 184.772 425.266C187.556 426.885 190.96 427.493 193.626 429.25C199.818 433.331 199.611 442.023 193.013 445.299C188.708 447.436 188.476 450.091 189.426 453.981C189.952 456.135 189.87 458.438 190.062 460.673C178.467 460.214 184.266 449.882 179.944 443.978C178.718 447.183 177.75 449.445 176.989 451.774C176.153 454.332 174.99 455.885 171.991 454.522C169.523 453.4 168.438 452.293 169.833 449.234C172.814 442.701 175.249 435.918 177.955 428.845ZM188.963 439.457C191.853 435.724 188.773 434.328 186.18 433.883C184.92 433.667 183.247 435.856 181.761 436.956C181.971 437.416 182.181 437.877 182.392 438.337C184.364 438.849 186.336 439.362 188.963 439.457Z" fill="white"/>
<path d="M208.905 237.591C188.867 237.94 168.737 237.977 148.607 237.969C147.301 237.968 145.996 237.614 144.341 237.201C151.466 231.231 159.552 228.192 169.341 228.832C180.54 229.565 191.823 229.023 203.534 229.101C205.603 231.867 207.208 234.569 208.905 237.591Z" fill="white"/>
<path d="M288.471 237.939C289.613 235.218 291.223 232.523 292.917 229.497C307.609 229.111 322.223 228.806 336.819 229.192C340.128 229.279 343.401 231.702 346.636 233.169C348.715 234.112 350.693 235.273 352.862 236.658C351.249 237.319 349.492 237.949 347.733 237.954C328.135 238.013 308.537 237.975 288.471 237.939Z" fill="white"/>
<path d="M207.534 304.05C207.01 306.746 206.017 309.421 205.011 312.465C190.346 312.889 175.685 313.231 161.047 312.797C157.391 312.688 153.775 310.157 150.206 308.591C147.503 307.406 144.904 305.985 142.07 304.368C163.609 304.055 185.337 304.042 207.534 304.05Z" fill="#FEFFFF"/>
<path d="M293.466 312.899C291.722 310.137 290.443 307.439 289.083 304.406C308.64 304.046 328.277 304.01 347.914 304.025C349.384 304.026 350.853 304.402 352.673 304.827C345.054 310.13 336.922 313.883 326.885 313.173C315.95 312.4 304.919 312.976 293.466 312.899Z" fill="white"/>
<path d="M125.919 425.625C135.783 419.109 145.431 412.864 156.249 405.863C153.198 418.906 150.515 430.376 147.568 442.975C145.53 439.376 140.299 440.117 141.43 434.521C141.671 433.331 136.138 429.15 134.439 429.738C129.635 431.402 127.977 428.53 125.919 425.625Z" fill="white"/>
<path d="M391.245 394.726C393.688 395.742 395.79 396.564 397.892 397.386C398.089 397.873 398.285 398.361 398.482 398.848C395.832 400.226 393.069 401.427 390.56 403.027C387.574 404.93 384.174 406.263 384.359 411.212C384.443 413.448 381.559 415.794 379.618 418.693C374.278 407.076 369.406 396.479 363.912 384.528C373.98 388.26 382.442 391.396 391.245 394.726Z" fill="white"/>
<path d="M276.143 464.019C271.538 468.547 271.373 468.632 265.679 468.727C268.194 457.376 270.661 446.239 273.128 435.101C273.629 434.955 274.129 434.808 274.63 434.662C280.709 444.427 286.789 454.191 293.249 464.568C289.554 464.341 286.304 468.217 283.082 463.4C282.504 462.536 278.82 463.751 276.143 464.019Z" fill="white"/>
<path d="M325.11 445.407C327.36 444.058 329.306 442.955 331.419 441.757C332.734 443.697 333.823 445.303 335.053 447.116C330.635 452.725 324.574 453.985 318.281 452.804C312.599 451.738 308.842 447.521 307.114 442C304.4 433.326 307.957 426.769 314.291 423.113C320.653 419.44 323.009 420.26 324.585 427.389C316.488 429.162 313.263 432.447 314.014 438.153C314.669 443.131 319.087 446.201 325.11 445.407Z" fill="white"/>
<path d="M131.175 392.321C129.974 393.426 129.009 394.276 127.921 395.234C125.653 393.084 123.62 391.157 121.27 388.93C120.201 390.07 119.185 391.155 118.047 392.369C119.662 394.088 121.119 395.638 122.83 397.459C121.391 398.97 119.966 400.466 118.202 402.317C116.277 400.604 114.471 398.996 112.469 397.214C109.48 399.68 106.462 402.169 103.527 404.59C102.1 403.121 100.617 401.596 98.6348 399.558C106.303 392.615 113.961 385.682 122.136 378.281C125.713 382.359 128.987 386.009 132.106 389.787C132.385 390.125 131.667 391.286 131.175 392.321Z" fill="white"/>
<path d="M210.058 283.604C200.022 283.964 189.93 283.969 179.362 283.966C184.474 277.694 190.062 271.431 196.427 264.297C201.017 270.705 205.509 276.978 210.058 283.604Z" fill="white"/>
<path d="M345.999 409.994C350.894 416.918 355.848 423.392 360.324 430.181C360.88 431.025 359.177 433.789 357.95 435.149C357.512 435.634 354.754 435.048 354.124 434.177C348.603 426.549 343.325 418.745 337.875 410.851C340.369 408.195 342.485 404.812 345.999 409.994Z" fill="white"/>
<path d="M157.972 281.642C152.77 281.971 147.425 281.986 141.622 282C141.164 274.927 141.164 267.854 141.164 260.781C141.457 260.574 141.749 260.366 142.041 260.159C147.303 267.215 152.566 274.271 157.972 281.642Z" fill="white"/>
<path d="M207.299 390.446C234.412 390.03 261.672 390.021 289.39 390.026C289.209 390.359 288.57 390.957 287.931 390.957C261.103 390.956 234.274 390.902 207.299 390.446Z" fill="white"/>
<path d="M280.466 309.998C280.951 330.799 280.877 351.601 281.072 372.4C281.114 376.875 279.4 378.104 275.178 378.065C257.54 377.902 239.898 377.867 222.261 378.083C217.533 378.141 215.859 376.692 215.912 371.84C216.135 351.541 216.021 331.237 216.051 310.466C237.383 309.998 258.694 309.999 280.466 309.998Z" fill="white"/>
<path d="M79.755 147.584C79.5775 147.977 79.2385 148.07 78.8995 148.162C78.8449 147.92 78.7903 147.677 78.7357 147.434C79.0216 147.384 79.3075 147.333 79.755 147.584Z" fill="black"/>
</svg>
